# xmcd
# 
# Track frame offsets:
#     150
#     18452
#     38100
#     64752
#     90782
#     122165
#     138127
#     164920
#     193040
#     218022
#     250172
# 
# Disc length: 4405
# 
# Revision: 1
# Processed by: cddbd v1.5.2PL0 Copyright (c) Steve Scherf et al.
# Submitted via: BonkEnc v1.0.8
# 
DISCID=9311330b
DTITLE=Joe Strummer and The Mescaleros - Global A Go-Go
DYEAR=2001
DGENRE=Rock
TTITLE0=Johnny Appleseed
TTITLE1=Cool'N'Out
TTITLE2=Global A Go-Go
TTITLE3=Bhindi Bhagee
TTITLE4=Gamma Ray
TTITLE5=Mega Bottle Ride
TTITLE6=Shaktar Donetsk
TTITLE7=Mondo Bongo
TTITLE8=Bummed Out City
TTITLE9=At the Border, Guy
TTITLE10=Minstrel Boy
EXTD=2001 Hellcat Records
EXTT0=
EXTT1=
EXTT2=
EXTT3=
EXTT4=
EXTT5=
EXTT6=
EXTT7=
EXTT8=
EXTT9=
EXTT10=
PLAYORDER=
